<?xml version="1.0" standalone="no"?>
<!DOCTYPE svg PUBLIC "-//W3C//DTD SVG 20010904//EN"
 "http://www.w3.org/TR/2001/REC-SVG-20010904/DTD/svg10.dtd">
<svg version="1.0" xmlns="http://www.w3.org/2000/svg"
viewBox="0 0 799 534"
 preserveAspectRatio="xMidYMid meet">

<g transform="translate(0.000000,534.000000) scale(0.100000,-0.100000)"
fill="#000000" stroke="none">
<path d="M6635 3674 c-163 -29 -298 -97 -395 -201 -74 -79 -121 -164 -156
-278 -24 -82 -27 -105 -27 -265 -1 -150 2 -187 21 -260 70 -267 226 -423 474
-475 149 -32 424 -15 618 38 l85 23 3 387 2 387 -292 -2 -293 -3 -3 -132 -3
-133 141 0 140 0 0 -149 0 -149 -40 -7 c-22 -4 -86 -7 -143 -7 -127 -1 -192
21 -260 88 -86 84 -127 209 -127 389 0 222 82 376 245 456 68 33 72 34 200 34
131 0 174 -8 292 -56 18 -7 35 -10 38 -7 3 3 28 59 55 124 37 88 47 120 37
126 -6 4 -46 19 -87 32 -163 54 -360 69 -525 40z"/>
<path d="M1236 3478 c-38 -106 -112 -319 -166 -473 -54 -154 -139 -396 -189
-539 -50 -142 -91 -260 -91 -263 0 -2 77 -2 171 -1 l172 3 51 168 51 167 266
0 266 0 49 -167 49 -168 173 -3 c94 -1 172 -1 172 1 0 2 -9 28 -19 58 -205
582 -322 912 -407 1151 -46 131 -84 242 -84 248 0 6 -72 10 -198 10 l-199 0
-67 -192z m274 -82 c0 -13 8 -39 114 -380 31 -98 56 -185 56 -192 0 -11 -34
-14 -180 -14 -99 0 -180 3 -180 8 0 4 26 93 58 197 32 105 72 236 88 292 26
92 44 128 44 89z"/>
<path d="M2390 2934 l0 -736 363 4 c348 3 365 4 427 27 133 47 214 114 263
219 30 63 32 73 32 182 0 99 -4 122 -24 167 -29 65 -92 124 -157 148 -64 24
-71 31 -39 39 74 19 156 112 176 200 6 30 10 93 7 143 -3 76 -8 97 -34 144
-41 73 -109 123 -209 155 -106 34 -226 43 -542 44 l-263 0 0 -736z m634 450
c68 -26 91 -60 91 -134 0 -70 -21 -105 -81 -135 -32 -16 -65 -20 -181 -23
l-143 -4 0 162 0 163 133 -6 c94 -3 146 -10 181 -23z m2 -569 c80 -23 124 -81
124 -162 0 -75 -34 -132 -95 -163 -45 -22 -65 -25 -197 -28 l-148 -4 0 186 0
186 133 0 c89 0 150 -5 183 -15z"/>
<path d="M3770 2935 l0 -735 155 0 155 0 0 735 0 735 -155 0 -155 0 0 -735z"/>
<path d="M4450 2935 l0 -735 141 0 141 0 -4 528 c-3 290 -8 535 -13 545 -4 9
-3 17 1 17 5 0 149 -244 320 -543 l311 -542 207 -3 206 -2 -2 732 -3 733 -144
3 -143 3 3 -540 c2 -297 1 -537 -2 -533 -6 6 -392 670 -567 975 l-56 97 -198
0 -198 0 0 -735z"/>
<path d="M790 1710 l0 -70 3315 0 3315 0 0 70 0 70 -3315 0 -3315 0 0 -70z"/>
</g>
</svg>
